<?xml version="1.0" encoding="UTF-8" standalone="no"?>
<svg width="30px" height="30px" viewBox="0 0 30 30" version="1.1" xmlns="http://www.w3.org/2000/svg" xmlns:xlink="http://www.w3.org/1999/xlink">
    <!-- Generator: Sketch 45.2 (43514) - http://www.bohemiancoding.com/sketch -->
    <title>product-card__icon--dairy</title>
    <desc>Created with Sketch.</desc>
    <defs></defs>
    <g id="Symbols" stroke="none" stroke-width="1" fill="none" fill-rule="evenodd">
        <g id="product-card__icon--dairy" fill="#B8E986">
            <path d="M22.8438,5.5543 L22.8438,6.1852 C22.8438,8.7288 20.4903,9.0227 20.4903,11.8961 C20.4902,12.4905 20.4903,13.0849 20.4903,13.6793 L21.2598,13.6793 C21.6287,13.6793 21.8848,13.4233 21.8848,13.0543 L21.8848,12.8043 L21.8848,11.9293 L24.6368,11.9293 L24.6368,13.0543 C24.6368,14.0766 24.0855,14.8945 23.3594,15.5153 L24.5801,17.5524 C24.9118,18.107 24.7578,18.8436 24.2325,19.2203 L22.166,20.6969 L21.2598,19.7926 L20.4903,20.5621 C20.4903,21.6734 20.4901,22.7848 20.4903,23.8961 C20.4903,24.5619 20.7019,25.2616 21.0782,25.7907 C21.5073,26.3939 22.2892,27.0524 22.8438,27.0524 L27.1368,27.0524 C27.8437,27.0524 28.479,26.3771 28.9024,25.7907 C29.2894,25.2544 29.4903,24.5619 29.4903,23.8961 L29.4903,11.8961 C29.4903,8.9667 27.1368,8.7289 27.1368,6.1852 L27.1368,5.5543 L25.4903,5.5543 L22.8438,5.5543 Z" id="Shape"></path>
            <path d="M22.7598,12.8031 L22.7598,13.0531 C22.7598,13.8875 22.0941,14.5531 21.2598,14.5531 C15.4532,14.5537 9.5866,14.5531 3.7598,14.5531 C2.9314,14.5531 2.2598,15.2247 2.2598,16.0531 L2.2598,17.5531 C2.2598,18.3875 1.5941,19.0531 0.7598,19.0531 L0.5098,19.0531 L0.5098,20.0531 L0.7598,20.0531 C1.324,20.0531 1.8402,19.856 2.2598,19.5375 L2.2598,27.0531 L4.7598,27.0531 L4.7598,24.5531 L5.2598,24.5531 C6.3644,24.5531 7.2598,23.6577 7.2598,22.5531 L14.7598,22.5531 L14.7598,27.0531 L17.2598,27.0531 L17.2598,23.5883 C17.2599,22.9253 17.5233,22.2895 17.9922,21.8207 L20.9063,18.9066 C21.1015,18.7114 21.4181,18.7114 21.6133,18.9066 L22.2598,19.5531 L23.7227,18.5082 C23.8846,18.3921 23.9304,18.1713 23.8282,18.0004 L22.2383,15.3519 C23.1305,14.9691 23.7598,14.0811 23.7598,13.0531 L23.7598,12.8031 L22.7598,12.8031 Z" id="Shape"></path>
            <polygon id="Shape" fill-rule="nonzero" points="27.4903 2.9469 22.4903 2.9469 22.4903 4.6969 27.4903 4.6969"></polygon>
        </g>
    </g>
</svg>