<?xml version="1.0" encoding="UTF-8" standalone="no"?>
<svg width="30px" height="30px" viewBox="0 0 30 30" version="1.1" xmlns="http://www.w3.org/2000/svg" xmlns:xlink="http://www.w3.org/1999/xlink">
    <!-- Generator: Sketch 45.2 (43514) - http://www.bohemiancoding.com/sketch -->
    <title>product-card__icon--vegetables</title>
    <desc>Created with Sketch.</desc>
    <defs></defs>
    <g id="Symbols" stroke="none" stroke-width="1" fill="none" fill-rule="evenodd">
        <g id="product-card__icon--vegetables" fill-rule="nonzero" fill="#388E3C">
            <g id="noun_950698_cc" transform="translate(4.000000, 0.000000)">
                <g id="Group" transform="translate(0.000000, 0.197724)">
                    <path d="M13.832427,0.1122696 C12.9303125,0.1122696 11.4267904,1.9722696 11.1260866,2.9022696 C10.7406187,3.0347295 10.2466332,3.0545354 9.78231158,3.1057071 C10.0807638,3.2668761 10.3705941,3.5591751 10.4964858,3.9485196 C10.7038943,4.5899747 10.5866518,5.2358969 10.3555291,5.7600821 C10.2084864,6.0935801 10.0179314,6.3801999 9.81050171,6.6416446 C10.2928026,7.3279536 10.5246759,8.1201183 10.5246759,8.7922696 C10.4651513,9.2378512 10.1544153,9.6725642 9.88566329,9.9450821 C10.2061683,10.1514708 10.4952843,10.3207649 10.7501909,10.4585196 L9.48159263,14.130079 C9.371465,14.146199 9.26536842,14.155499 9.15269566,14.178532 L7.62098342,10.7491446 C8.39047566,10.336237 9.67002618,9.575435 9.92325316,8.7922696 C9.92325316,8.1722696 9.62254632,7.2422696 9.02113868,6.6222696 C9.62254632,6.0022696 10.223957,5.0722696 9.92325316,4.1422696 C9.62254632,3.2122696 8.11902421,3.5222696 7.21690974,3.2122696 C6.91620592,2.2822696 5.41268382,0.4222696 4.51056934,0.4222696 C3.00704724,0.4222696 2.40563658,2.9022696 2.10493276,4.1422696 C0.902114474,4.4522696 0,5.6922696 0,6.6222696 C0,7.5522696 1.20281829,8.7922696 2.10493276,9.1022696 C2.50587118,10.2389373 1.80422895,11.8922696 3.30775105,12.5122696 C4.28150447,12.5122696 5.65116961,12.1045328 6.61550211,11.4563321 L7.98746724,14.536954 C5.66792026,15.457344 3.30775105,17.714423 3.30775105,21.192282 C3.30775105,24.602282 5.71338763,27.392282 7.81832039,30.492282 C10.8253646,27.392282 14.4338225,24.602282 14.4338225,21.192282 C14.4338225,18.835042 14.0491596,17.036639 13.3155746,15.835079 L15.3453337,13.316329 C16.1154614,14.199085 17.3367524,14.955299 18.2772012,15.215079 C19.8851524,15.017392 19.6249164,13.231978 20.2975605,12.2410227 C21.2467645,12.182287 22.7140374,11.308397 22.9475207,10.4100852 C23.181007,9.5117734 22.6219708,8.0660822 21.5379687,7.4457102 C21.55882,6.167729 21.5994997,3.6134406 20.1472101,3.2122727 C19.1414625,2.907986 17.4636942,4.2573354 16.8300624,5.1885227 C15.8808614,5.2472584 14.5067083,4.5448201 13.9827653,5.3628977 C13.4588222,6.1809753 13.8112246,7.2385558 14.2364825,7.9978977 C13.4999105,8.4363028 12.9731893,9.2590242 12.8175338,9.8578977 C12.8653254,10.6787126 13.9065354,11.751356 14.5465861,12.3572727 L12.51683,14.876032 C12.0211407,14.449317 11.4319714,14.189413 10.7595876,14.101032 L11.7744657,11.1753977 C12.2049772,11.4571877 12.7077088,11.6894211 13.2216045,11.8632102 C12.6357007,11.0874104 12.264405,10.4965783 12.2349196,9.6932102 C12.4038032,9.0434409 12.8362879,8.3482163 13.4753247,7.8138352 C13.3380299,7.502465 13.2243614,7.172842 13.1652242,6.8063352 C13.0735783,6.2383408 13.123343,5.5880941 13.4847214,5.0238352 C13.9667409,4.3950808 14.6386254,4.2912618 15.3265372,4.3747727 C15.838723,4.4383878 16.27664,4.5229682 16.6045322,4.5394602 C16.7123114,4.4089254 16.8349559,4.2790137 16.9616193,4.1519602 C16.737563,4.0124974 16.4955758,3.8986437 16.2380484,3.8322727 C15.8125151,1.977986 15.207252,0.117986 13.832427,0.1122727 L13.832427,0.1122696 Z" id="Shape"></path>
                </g>
            </g>
        </g>
    </g>
</svg>