<?xml version="1.0" encoding="UTF-8" standalone="no"?>
<svg width="17px" height="22px" viewBox="0 0 17 22" version="1.1" xmlns="http://www.w3.org/2000/svg" xmlns:xlink="http://www.w3.org/1999/xlink">
    <!-- Generator: Sketch 45.2 (43514) - http://www.bohemiancoding.com/sketch -->
    <title>product-card__location-icon--fridge</title>
    <desc>Created with Sketch.</desc>
    <defs></defs>
    <g id="Symbols" stroke="none" stroke-width="1" fill="none" fill-rule="evenodd">
        <g id="product-card__location-icon--fridge" fill-rule="nonzero" fill="#546E7A">
            <path d="M14.5960487,0 L1.99049391,0 C1.05407021,0 0.293997033,0.686546794 0.293997033,1.53450535 L0.293997033,7.05903083 L16.293997,7.05903083 L16.293997,1.53450535 C16.293997,0.686546794 15.5336819,0 14.5960487,0 Z M2.57034604,5.4425073 C2.57034604,5.69162383 2.34706548,5.89284175 2.07274244,5.89284175 C1.79720987,5.89284175 1.5739293,5.69162383 1.5739293,5.4425073 L1.5739293,3.52503175 C1.5739293,3.27569651 1.79720987,3.07513473 2.07274244,3.07513473 C2.34706548,3.07513473 2.57034604,3.27569651 2.57034604,3.52503175 L2.57034604,5.4425073 Z" id="Shape"></path>
            <path d="M0.293997033,7.94793808 L0.293997033,20.4921257 L16.293997,20.4921257 L16.293997,7.94793808 L0.293997033,7.94793808 Z M2.57034604,11.4819372 C2.57034604,11.7312724 2.34706548,11.9329278 2.07274244,11.9329278 C1.79720987,11.9329278 1.5739293,11.7310537 1.5739293,11.4819372 L1.5739293,9.56446161 C1.5739293,9.31490765 1.79720987,9.11434587 2.07274244,9.11434587 C2.34706548,9.11434587 2.57034604,9.31490765 2.57034604,9.56446161 L2.57034604,11.4819372 Z" id="Shape"></path>
            <path d="M1.9251789,22 L14.5307337,22 C15.3154814,22 15.9686315,21.5164208 16.1631251,20.8633375 L0.293997033,20.8633375 C0.488732522,21.5164208 1.1416407,22 1.9251789,22 Z" id="Shape"></path>
        </g>
    </g>
</svg>