<?xml version="1.0" encoding="UTF-8" standalone="no"?>
<svg width="17px" height="22px" viewBox="0 0 17 22" version="1.1" xmlns="http://www.w3.org/2000/svg" xmlns:xlink="http://www.w3.org/1999/xlink">
    <!-- Generator: Sketch 45.2 (43514) - http://www.bohemiancoding.com/sketch -->
    <title>product-card__location-icon--freezer</title>
    <desc>Created with Sketch.</desc>
    <defs></defs>
    <g id="Symbols" stroke="none" stroke-width="1" fill="none" fill-rule="evenodd">
        <g id="product-card__location-icon--freezer" fill-rule="nonzero" fill="#546E7A">
            <path d="M16.9998187,11.4962842 C16.9998187,11.4032989 16.9691737,11.3181077 16.9185822,11.2481421 L16.9223902,11.245242 L16.0723086,9.97081747 L16.0685006,9.9737176 C15.9912534,9.86713794 15.8666788,9.79699112 15.7246963,9.79699112 C15.4898721,9.79699112 15.2996555,9.98713069 15.2996555,10.2218597 C15.2996555,10.3152075 15.3306631,10.40058 15.3814359,10.4707268 L15.3807106,10.4712706 L15.7810903,11.0715969 L13.9743043,11.0715969 L14.3685187,10.4805148 L14.3630788,10.4765271 C14.4167529,10.405474 14.4497552,10.3179264 14.4497552,10.222041 C14.4497552,9.98731194 14.2595386,9.79717238 14.0247144,9.79717238 C13.871308,9.79717238 13.7382108,9.8789197 13.6635023,10.0005438 L12.9492379,11.0715969 L10.1460358,11.0715969 C10.1057802,10.9158963 10.0432209,10.7696212 9.96307239,10.6347653 L9.96307239,10.634584 L10.565818,10.0320827 L11.2735544,10.7395324 L11.8748493,10.1388436 L11.1669316,9.43121262 L11.9421233,8.65633496 L13.2397308,8.91589632 L13.2404561,8.91118361 C13.3704707,8.93202828 13.5082826,8.89323908 13.6083775,8.7931847 C13.7744771,8.6273337 13.7744771,8.35852819 13.6083775,8.19249592 C13.5423729,8.12669929 13.4600484,8.08809135 13.37446,8.07449701 L13.3746413,8.07359072 L12.6669049,7.93220953 L13.9445659,6.65506616 L14.0840098,7.35164038 L14.0905377,7.35055284 C14.1028682,7.43864419 14.1414918,7.52401668 14.2094911,7.59180714 C14.3755907,7.75783941 14.6443238,7.75783941 14.8104234,7.59180714 C14.9190409,7.4834149 14.9553071,7.3313395 14.9219422,7.19249592 L14.6283666,5.72503172 C14.6151294,5.63857169 14.5765059,5.5553743 14.5099572,5.4890339 C14.4443153,5.42341852 14.3623535,5.38462933 14.2771277,5.37103498 L14.277853,5.36632228 L12.7751597,5.06597789 L12.7744344,5.07069059 C12.6444198,5.05002719 12.5066079,5.08863513 12.406513,5.18868951 C12.2404134,5.35472177 12.2404134,5.62334602 12.406513,5.78937829 C12.4723363,5.85535617 12.5548421,5.89396411 12.6404305,5.90755846 L12.6402492,5.90828349 L13.3478043,6.04984593 L12.0703246,7.32680805 L11.9308807,6.63023382 L11.9241715,6.63132137 C11.9118409,6.54323002 11.8732174,6.45803879 11.8053994,6.39006707 C11.6392998,6.2240348 11.3703854,6.2240348 11.2044672,6.39006707 C11.0958496,6.49864057 11.0595834,6.65071597 11.0931297,6.7897408 L11.345543,8.05147725 L10.5659993,8.83070509 L9.87349468,8.1382998 L9.27238109,8.7393511 L9.96488571,9.43157513 L9.36214014,10.0340765 C9.35724419,10.0309951 9.35162292,10.0293638 9.34672697,10.0264637 C9.28815693,9.99256842 9.22759224,9.96229835 9.16485157,9.93547218 C9.1528837,9.93057821 9.14055317,9.92586551 9.12840396,9.9211528 C9.06239933,9.89468914 8.99476272,9.87130687 8.92495013,9.85318108 L8.92495013,7.05492115 L10.0259944,6.32118905 L10.0230931,6.31720138 C10.1297159,6.2399855 10.1998912,6.1154613 10.1998912,5.97353634 C10.1998912,5.73880732 10.0096746,5.54866775 9.7748504,5.54866775 C9.68146473,5.54866775 9.59605764,5.57966286 9.52588239,5.63041508 L9.5253384,5.62969005 L8.9247688,6.02990756 L8.9247688,4.22385354 L9.5160905,4.61790828 L9.52007979,4.61247055 C9.59116169,4.66612289 9.67874476,4.69911184 9.77466907,4.69911184 C10.0094932,4.69911184 10.1997099,4.50897227 10.1997099,4.27424325 C10.1997099,4.12089904 10.1179294,3.98785572 9.99625604,3.91317745 L8.75014667,3.08283487 C8.73636548,3.07268443 8.72167764,3.06398405 8.70680846,3.05582744 C8.69973654,3.05183977 8.69284594,3.04785209 8.68559269,3.04440819 C8.67271816,3.03806417 8.6596623,3.03244517 8.64606244,3.02736995 C8.63373191,3.0228385 8.62103871,3.01903208 8.60834551,3.01576944 C8.59782829,3.01286931 8.58767373,3.00978793 8.57661252,3.00779409 C8.55177011,3.00308138 8.52620239,3 8.499728,3 C8.47325362,3 8.44786722,3.00308138 8.42284349,3.00779409 C8.4125076,3.00960667 8.40289704,3.0125068 8.39292381,3.01522567 C8.37932395,3.01885082 8.36608676,3.02265724 8.3530309,3.02755121 C8.3403377,3.03208265 8.3281885,3.03733913 8.31622063,3.04313939 C8.30769805,3.04712706 8.29953814,3.05183977 8.29137823,3.05655247 C8.27759704,3.06434657 8.26417852,3.0719594 8.25148532,3.08102229 C8.25148532,3.08120355 8.25130399,3.08120355 8.25130399,3.08120355 L8.24840268,3.07739714 L6.97346162,3.92713431 L6.97672558,3.93075947 C6.87010272,4.00797535 6.79992747,4.13249955 6.79992747,4.27442451 C6.79992747,4.50915353 6.99014411,4.69929309 7.22496827,4.69929309 C7.31835394,4.69929309 7.40376103,4.66829799 7.47393628,4.61754577 L7.47448027,4.6182708 L8.07504987,4.21805329 L8.07504987,6.0241073 L7.48372817,5.63005256 L7.47973888,5.6354903 C7.40865697,5.58183796 7.32107391,5.54884901 7.2251496,5.54884901 C6.99032544,5.54884901 6.8001088,5.73898858 6.8001088,5.9737176 C6.8001088,6.12706181 6.88188926,6.26010513 7.00356263,6.3347834 L8.07504987,7.04875838 L8.07504987,9.85281856 C8.00523728,9.87094435 7.93760067,9.89432663 7.87159604,9.92079028 C7.85944683,9.92550299 7.8471163,9.9302157 7.83514843,9.93510966 C7.77240776,9.96175458 7.71184307,9.99220591 7.65327303,10.0261011 C7.64837708,10.0290013 7.64275581,10.0306326 7.63785986,10.033714 L7.03511429,9.43121262 L7.74285074,8.72376291 L7.14191849,8.12271162 L6.4340007,8.83034258 L5.65880897,8.05546493 L5.91847554,6.75838318 L5.91376092,6.75765815 C5.93461403,6.62769621 5.89580911,6.48994018 5.79571418,6.38988581 C5.62979595,6.22385354 5.36088148,6.22385354 5.19478192,6.38988581 C5.12895862,6.45586369 5.09033504,6.53815479 5.07673518,6.62370854 L5.07582852,6.62352728 L4.93439003,7.33097698 L3.65672899,6.05383361 L4.35358556,5.91444626 L4.35249757,5.90792097 C4.44062463,5.89559543 4.52603172,5.85698749 4.59384967,5.78901577 C4.75994923,5.62298351 4.75994923,5.35435925 4.59384967,5.18832699 C4.48541349,5.07975349 4.33327645,5.0435019 4.19437659,5.07685336 L2.72631759,5.37030995 C2.63982251,5.38354178 2.5565914,5.42214972 2.4902241,5.48867138 C2.42458214,5.55428675 2.38577722,5.63621533 2.37217736,5.72140656 L2.36746275,5.72068153 L2.06699662,7.222766 L2.07171124,7.22349103 C2.05103946,7.35345296 2.08966304,7.49120899 2.18975798,7.59126337 C2.35585754,7.75729563 2.62459067,7.75729563 2.79069023,7.59126337 C2.85669486,7.52546674 2.89531845,7.44299438 2.9089183,7.35744064 L2.90964363,7.3576219 L3.05126345,6.65035345 L4.32874316,7.92731557 L3.63188659,8.06670292 L3.63297458,8.07340946 C3.54484752,8.085735 3.45962176,8.12434294 3.39162249,8.19213341 C3.22552293,8.35816567 3.22552293,8.62697118 3.39162249,8.79282219 C3.50024,8.90139569 3.65237704,8.93764727 3.79145822,8.90411456 L5.05370609,8.65180352 L5.83324978,9.43103136 L5.14056383,10.1232554 L5.74185875,10.7241254 L6.43436337,10.0319014 L7.03710894,10.6344028 L7.03710894,10.634584 C6.95714179,10.7694399 6.89440113,10.9157151 6.85414556,11.0714156 L4.05656473,11.0714156 L3.32253523,9.97081747 L3.31872727,9.9737176 C3.24148009,9.86713794 3.11690542,9.79699112 2.97492293,9.79699112 C2.74009877,9.79699112 2.54988213,9.98713069 2.54988213,10.2218597 C2.54988213,10.3152075 2.5808898,10.40058 2.6316626,10.4707268 L2.63093727,10.4712706 L3.031317,11.0715969 L1.22453094,11.0715969 L1.6187454,10.4805148 L1.61330546,10.4765271 C1.66697955,10.405474 1.69998187,10.3179264 1.69998187,10.222041 C1.69998187,9.98731194 1.50976523,9.79717238 1.27494107,9.79717238 C1.1215347,9.79717238 0.988437457,9.8789197 0.91372892,10.0005438 L0.0830497808,11.2461483 C0.031370332,11.3166576 -5.5067062e-14,11.4025739 -5.5067062e-14,11.4964655 C-5.5067062e-14,11.4977343 0.000362662798,11.4990031 0.000362662798,11.5002719 C0.000362662798,11.5015407 -5.5067062e-14,11.5028095 -5.5067062e-14,11.5040783 C-5.5067062e-14,11.5970636 0.0306450065,11.6822548 0.0812364668,11.7522204 L0.0774285074,11.7551205 L0.927510107,13.029545 L0.931318066,13.0266449 C1.00856524,13.1332246 1.13313991,13.2033714 1.2751224,13.2033714 C1.50994656,13.2033714 1.7001632,13.0132318 1.7001632,12.7785028 C1.7001632,12.685155 1.66915553,12.5997825 1.61838274,12.5296357 L1.61910806,12.5290919 L1.21872833,11.9287656 L3.02551439,11.9287656 L2.63129993,12.5198477 L2.63673987,12.5238354 C2.58306578,12.5948885 2.55006347,12.6824361 2.55006347,12.7783216 C2.55006347,13.0130506 2.7402801,13.2031901 2.97510427,13.2031901 C3.12851063,13.2031901 3.26160788,13.1214428 3.33631641,12.9998187 L4.05058079,11.9287656 L6.85378289,11.9287656 C6.89403846,12.0844662 6.9565978,12.2307413 7.03674627,12.3655972 L7.03674627,12.3657785 L6.43381937,12.9682799 L5.72608292,12.2608302 L5.124788,12.8615189 L5.83270578,13.5691499 L5.05751405,14.3440276 L3.75990656,14.0844662 L3.75918124,14.0891789 C3.62916662,14.0683342 3.49135476,14.1071234 3.39125983,14.2071778 C3.22516026,14.3730288 3.22516026,14.6418343 3.39125983,14.8078666 C3.45726446,14.8736632 3.53958891,14.9122712 3.62517733,14.9258655 L3.624996,14.9267718 L4.33273245,15.068153 L3.05507141,16.3452964 L2.91562757,15.6487221 L2.90909964,15.6498097 C2.8967691,15.5617183 2.85814551,15.4763458 2.79014624,15.4085554 C2.62404668,15.2425231 2.35531354,15.2425231 2.18921398,15.4085554 C2.08059647,15.5169476 2.04433019,15.669023 2.07769517,15.8078666 L2.37127071,17.2753308 C2.3845079,17.3617908 2.42313149,17.4449882 2.48968011,17.5113286 C2.55532208,17.576944 2.63728387,17.6157332 2.72250963,17.6293275 L2.7217843,17.6340402 L4.22447761,17.9343846 L4.22520293,17.9296719 C4.35521754,17.9503353 4.49302941,17.9117274 4.59312434,17.811673 C4.7592239,17.6456407 4.7592239,17.3770165 4.59312434,17.2109842 C4.52730104,17.1450063 4.44479526,17.1063984 4.35920684,17.0928041 L4.35938817,17.092079 L3.65183305,16.9505166 L4.92931275,15.6735545 L5.0687566,16.3701287 L5.07546586,16.3690411 C5.0877964,16.4571325 5.12641998,16.5423237 5.19423793,16.6102955 C5.36033749,16.7763277 5.62925195,16.7763277 5.79517018,16.6102955 C5.90378769,16.501722 5.94005397,16.3496465 5.90650766,16.2106217 L5.65409436,14.9488853 L6.43363804,14.1696574 L7.12614265,14.8620627 L7.72725624,14.2610114 L7.03475163,13.5687874 L7.6374972,12.966286 C7.64239315,12.9693674 7.64801442,12.9709987 7.65291037,12.9738989 C7.71148041,13.0077941 7.7720451,13.0380642 7.83478576,13.0648903 C7.84675363,13.0697843 7.85908417,13.074497 7.87123337,13.0792097 C7.937238,13.1056734 8.00487461,13.1290556 8.0746872,13.1471814 L8.0746872,15.9452601 L6.97364295,16.6789922 L6.97654425,16.6827986 C6.86992139,16.7600145 6.79974614,16.8845387 6.79974614,17.0264637 C6.79974614,17.2611927 6.98996277,17.4513322 7.22478694,17.4513322 C7.31817261,17.4513322 7.4035797,17.4203371 7.47375495,17.3695849 L7.47429894,17.37031 L8.07486853,16.9700924 L8.07486853,18.7761465 L7.48354684,18.3820917 L7.47955755,18.3875295 C7.40847564,18.3338771 7.32089258,18.3008882 7.22496827,18.3008882 C6.99014411,18.3008882 6.79992747,18.4910277 6.79992747,18.7257568 C6.79992747,18.879101 6.88170793,19.0121443 7.0033813,19.0868225 L8.24949067,19.9171651 C8.26327186,19.9273156 8.2779597,19.936016 8.29282888,19.9441726 C8.2999008,19.9481602 8.30679139,19.9521479 8.31404465,19.9555918 C8.32691918,19.9619358 8.33997504,19.9675548 8.3535749,19.9726301 C8.3657241,19.9771615 8.37859863,19.9809679 8.39129183,19.9842306 C8.40199038,19.9871307 8.41214494,19.9902121 8.42302482,19.9922059 C8.44804855,19.9969186 8.47343495,20 8.49990933,20 C8.52638372,20 8.55177011,19.9969186 8.57679385,19.9922059 C8.58712974,19.9903933 8.5967403,19.9874932 8.60671353,19.9847743 C8.62031338,19.9811492 8.63355058,19.9773428 8.64678777,19.9724488 C8.65929963,19.9679173 8.67144884,19.9626609 8.68341671,19.9568606 C8.69193929,19.9528729 8.7000992,19.9481602 8.70844044,19.9434475 C8.7220403,19.9356534 8.73545882,19.9280406 8.74815202,19.9189777 C8.74815202,19.9187964 8.74833335,19.9187964 8.74833335,19.9187964 L8.75123465,19.9226029 L10.0261757,19.0728657 L10.0230931,19.0694218 C10.1297159,18.9922059 10.1998912,18.8676817 10.1998912,18.7257568 C10.1998912,18.4910277 10.0096746,18.3008882 9.7748504,18.3008882 C9.68146473,18.3008882 9.59605764,18.3318833 9.52588239,18.3826355 L9.5253384,18.3819105 L8.9247688,18.782128 L8.9247688,16.976074 L9.5160905,17.3701287 L9.52007979,17.364691 C9.59116169,17.4183433 9.67874476,17.4513322 9.77466907,17.4513322 C10.0094932,17.4513322 10.1997099,17.2611927 10.1997099,17.0264637 C10.1997099,16.8731194 10.1179294,16.7400761 9.99625604,16.6653979 L8.9247688,15.9514229 L8.9247688,13.1473627 C8.99458139,13.1292369 9.062218,13.1058546 9.12822263,13.079391 C9.14037184,13.0746783 9.15270237,13.0699656 9.16467024,13.0650716 C9.22741091,13.0384267 9.28797559,13.0079753 9.34654564,12.9740801 C9.35144158,12.97118 9.35706286,12.9695487 9.36195881,12.9664673 L9.96470438,13.5689686 L9.25696793,14.2764183 L9.85790018,14.8774696 L10.565818,14.1698387 L11.3410097,14.9447163 L11.0813431,16.2417981 L11.0860577,16.2425231 C11.0652046,16.372485 11.1040096,16.5102411 11.2041045,16.6102955 C11.3700227,16.7763277 11.6389372,16.7763277 11.8050367,16.6102955 C11.87086,16.5443176 11.9094836,16.4620265 11.9230835,16.3764727 L11.9239901,16.376654 L12.0654286,15.6692043 L13.3430897,16.9463477 L12.6462331,17.085735 L12.6473211,17.0922603 C12.559194,17.1045858 12.4737869,17.1431938 12.405969,17.2111655 C12.2398694,17.3771978 12.2398694,17.645822 12.405969,17.8118543 C12.5144052,17.9204278 12.6665422,17.9566794 12.8054421,17.9233279 L14.2735011,17.6298713 C14.3599962,17.6166395 14.4432273,17.5780315 14.5095946,17.5115099 C14.5752365,17.4458945 14.6140415,17.3639659 14.6276413,17.2787747 L14.6323559,17.2794997 L14.932822,15.7774153 L14.9281074,15.7766902 C14.9487792,15.6467283 14.9101556,15.5089723 14.8100607,15.4089179 C14.6439611,15.2428856 14.375228,15.2428856 14.2091284,15.4089179 C14.1431238,15.4747145 14.1045002,15.5571869 14.0909004,15.6427406 L14.090175,15.6425594 L13.9485552,16.3498278 L12.6710755,15.0728657 L13.3679321,14.9334783 L13.3668441,14.9267718 C13.4549711,14.9144463 13.5401969,14.8758383 13.6081962,14.8080479 C13.7742957,14.6420156 13.7742957,14.3732101 13.6081962,14.2073591 C13.4995787,14.0987856 13.3474416,14.062534 13.2083604,14.0960667 L11.9461126,14.3483777 L11.1665689,13.5691499 L11.8592548,12.8769259 L11.2579599,12.2760558 L10.5659993,12.9682799 L9.96325373,12.3657785 L9.96325373,12.3655972 C10.0432209,12.2307413 10.1059615,12.0844662 10.1462171,11.9287656 L12.9434353,11.9287656 L13.6774648,13.0293638 L13.6812727,13.0264637 C13.7585199,13.1330433 13.8830946,13.2031901 14.0250771,13.2031901 C14.2599012,13.2031901 14.4501179,13.0130506 14.4501179,12.7783216 C14.4501179,12.6849737 14.4191102,12.5996012 14.3683374,12.5294544 L14.3690627,12.5289106 L13.968683,11.9285844 L15.7754691,11.9285844 L15.3812546,12.5196665 L15.3866945,12.5236542 C15.3330204,12.5947073 15.3000181,12.6822548 15.3000181,12.7781403 C15.3000181,13.0128693 15.4902348,13.2030089 15.7250589,13.2030089 C15.8784653,13.2030089 16.0115625,13.1212616 16.0862711,12.9996375 L16.9169502,11.754033 C16.9686297,11.6835237 17,11.5976074 17,11.5037158 C17,11.502447 16.9996373,11.5011782 16.9996373,11.4999094 C16.9996373,11.4986406 16.9998187,11.497553 16.9998187,11.4962842 Z M8.49990933,12.3460214 C8.03171166,12.3460214 7.65236637,11.9675548 7.6501904,11.5000906 C7.65236637,11.0326264 8.03171166,10.6541599 8.49990933,10.6541599 C8.96810701,10.6541599 9.34745229,11.0326264 9.34962827,11.5000906 C9.34745229,11.9675548 8.96810701,12.3460214 8.49990933,12.3460214 Z" id="Shape"></path>
        </g>
    </g>
</svg>