<?xml version="1.0" encoding="UTF-8" standalone="no"?>
<svg width="17px" height="22px" viewBox="0 0 17 22" version="1.1" xmlns="http://www.w3.org/2000/svg" xmlns:xlink="http://www.w3.org/1999/xlink">
    <!-- Generator: Sketch 45.2 (43514) - http://www.bohemiancoding.com/sketch -->
    <title>product-card__location-icon--cupboard</title>
    <desc>Created with Sketch.</desc>
    <defs></defs>
    <g id="Symbols" stroke="none" stroke-width="1" fill="none" fill-rule="evenodd">
        <g id="product-card__location-icon--cupboard" fill-rule="nonzero" fill="#546E7A">
            <path d="M-0.61954432,22 L7.6948932,22 L7.6948932,0 L-0.61954432,0 L-0.61954432,22 Z M5.47770986,9.77777778 C6.08898731,9.77777778 6.58630153,10.3260667 6.58630153,11 C6.58630153,11.6739333 6.08898731,12.2222222 5.47770986,12.2222222 C4.86643242,12.2222222 4.36911819,11.6739333 4.36911819,11 C4.36911819,10.3260667 4.86643242,9.77777778 5.47770986,9.77777778 Z" id="Shape"></path>
            <path d="M17.1179224,0 L8.80348487,0 L8.80348487,22 L17.1179224,22 L17.1179224,0 Z M11.0206682,12.2222222 C10.4093908,12.2222222 9.91207654,11.6739333 9.91207654,11 C9.91207654,10.3260667 10.4093908,9.77777778 11.0206682,9.77777778 C11.6319457,9.77777778 12.1292599,10.3260667 12.1292599,11 C12.1292599,11.6739333 11.6319457,12.2222222 11.0206682,12.2222222 Z" id="Shape"></path>
        </g>
    </g>
</svg>